# xmcd
#
# Track frame offsets:
#	150
#	8325
#	27810
#	46904
#	68707
#	87604
#	120328
#	136884
#	159456
#	168353
#	186001
#	201605
#	220290
#	240632
#	260860
#	278839
#
# Disc length: 3934 seconds
# Revision: 0
# Processed by: cddbd v1.5.2PL0 Copyright (c) Steve Scherf et al.
# Submitted via: dBpowerAMP V12.0
#
DISCID=de0f5c10
DTITLE=Synthetic Breed - Synthetic Breed [EP]
DYEAR=2007
DGENRE=Industrial
TTITLE0=Synthetic Breed
TTITLE1=Human Receptor
TTITLE2=Extraction
TTITLE3=Re-Occuring Thought Pattern
TTITLE4=Neuro Connectivity
TTITLE5=Techno Sedation
TTITLE6=Chaos (Live)
TTITLE7=Frequency (Demo)
TTITLE8=Synthetic Breed - Drum Machine (Alternate Intro)
TTITLE9=Cybernetics (Guitar and Bass Demo)
TTITLE10=Eclectic (Guitar and Bass Demo)
TTITLE11=Symbiotic (Demo)
TTITLE12=Catharsis (Demo)
TTITLE13=Techno Sedation (Live)
TTITLE14=Neuro Connectivity (Japanese Demo)
TTITLE15=Censorship of Common Knowledge
EXTD=
EXTT0=
EXTT1=
EXTT2=
EXTT3=
EXTT4=
EXTT5=
EXTT6=
EXTT7=
EXTT8=
EXTT9=
EXTT10=
EXTT11=
EXTT12=
EXTT13=
EXTT14=
EXTT15=
PLAYORDER=
